# xmcd
#
# Track frame offsets:
#	150
#	13010
#	25930
#	37415
#	50396
#	60409
#	71589
#	80873
#	89033
#	97923
#	111506
#	122522
#	132909
#	146762
#	161143
#	169014
#	181648
#	194148
#	210366
#	224237
#
# Disc length: 3157 seconds
#
# Revision: 2
# Processed by: cddbd v1.5.1PL0 Copyright (c) Steve Scherf et al.
# Submitted via: EasyCDDAExtractor 8.2.1.1
#
DISCID=310c5314
DTITLE=Various Artist - The Rat Pack [CD3]
DYEAR=2004
DGENRE=Oldies
TTITLE0=Dean Martin - I Got The Sun In The Morning
TTITLE1=Dean Martin - All Of Me
TTITLE2=Dean Martin - Oh Marie
TTITLE3=Dean Martin - Which Way Did My Heart Go
TTITLE4=Dean Martin - Takes Two To Tango
TTITLE5=Dean Martin - Everybody Loves Somebody
TTITLE6=Dean Martin - On A Slow Boat To China
TTITLE7=Dean Martin - The Glow Worm
TTITLE8=Dean Martin - Rambling Rose
TTITLE9=Dean Martin - I'll String Along With You
TTITLE10=Dean Martin - Because You're Mine
TTITLE11=Dean Martin - My Lady Loves To Dance
TTITLE12=Dean Martin - Why Don't You Believe Me
TTITLE13=Dean Martin - To See You (Is To Love You)
TTITLE14=Dean Martin - For Me And My Gal
TTITLE15=Dean Martin - Louise
TTITLE16=Dean Martin - The Sweetheart Of Signa Chi (Girl Of My Dreams)
TTITLE17=Dean Martin - Somewhere Along The Way
TTITLE18=Dean Martin - If I Knew Then (What I Know Now)
TTITLE19=Dean Martin - One Foot In Heaven
EXTD=CD 3
EXTT0=
EXTT1=
EXTT2=
EXTT3=
EXTT4=
EXTT5=
EXTT6=
EXTT7=
EXTT8=
EXTT9=
EXTT10=
EXTT11=
EXTT12=
EXTT13=
EXTT14=
EXTT15=
EXTT16=
EXTT17=
EXTT18=
EXTT19=
PLAYORDER=
